<svg id="Capa_1" enable-background="new 0 0 512 512" height="512" viewBox="0 0 512 512" width="512" xmlns="http://www.w3.org/2000/svg"><g><g><path d="m389.92 113.16-3.53 69.2h-260.78l-3.53-69.2z" fill="#d8ecfe"/><path d="m389.92 113.16-3.53 69.2h-25l3.53-69.2z" fill="#b3dafe"/><path d="m386.39 182.36-14.07 275.36c-1.34 26.21-22.98 46.78-49.23 46.78h-134.18c-26.25 0-47.89-20.57-49.23-46.78l-14.07-275.36z" fill="#e2a975"/><path d="m386.39 182.36-14.07 275.36c-1.34 26.21-22.98 46.78-49.23 46.78h-25c26.25 0 47.89-20.57 49.23-46.78l14.07-275.36z" fill="#b57f5f"/><path d="m278.18 15.03v389.32c0 4.159-3.371 7.53-7.53 7.53h-29.3c-4.159 0-7.53-3.371-7.53-7.53v-389.32c0-4.159 3.371-7.53 7.53-7.53h29.3c4.159 0 7.53 3.371 7.53 7.53z" fill="#95d6a4"/><path d="m278.18 182.36v221.99c0 4.159-3.371 7.53-7.53 7.53h-29.3c-4.159 0-7.53-3.371-7.53-7.53v-221.99z" fill="#78c2a4"/><path d="m169.906 244.912h172.189v109.575h-172.189z" fill="#fef0ae"/><path d="m316.59 244.91h25.5v109.58h-25.5z" fill="#fee97d"/><path d="m169.906 244.912h42.094v109.575h-42.094z" fill="#ffd15b"/><path d="m278.18 80.55v-65.52c0-4.159-3.371-7.53-7.53-7.53h-29.3c-4.159 0-7.53 3.371-7.53 7.53v65.52z" fill="#b3e59f"/><path d="m103 80.55h306v32.612h-306z" fill="#ffd15b"/><path d="m384 80.55h25v32.61h-25z" fill="#ffc344"/></g><g><path d="m409 73.05h-123.324v-65.55c0-4.143-3.358-7.5-7.5-7.5h-44.352c-4.142 0-7.5 3.357-7.5 7.5v65.55h-34.324c-4.142 0-7.5 3.357-7.5 7.5s3.358 7.5 7.5 7.5h209.5v17.611h-291v-17.611h46.5c4.142 0 7.5-3.357 7.5-7.5s-3.358-7.5-7.5-7.5h-54c-4.142 0-7.5 3.357-7.5 7.5v32.611c0 4.143 3.358 7.5 7.5 7.5h11.958l13.553 265.404c.211 4.137 3.739 7.334 7.873 7.107 4.137-.211 7.319-3.736 7.108-7.873l-9.98-195.438h92.813v47.551h-56.419c-4.142 0-7.5 3.357-7.5 7.5v109.575c0 4.143 3.358 7.5 7.5 7.5h56.419v49.896c0 4.143 3.358 7.5 7.5 7.5h44.352c4.142 0 7.5-3.357 7.5-7.5v-49.896h56.419c4.142 0 7.5-3.357 7.5-7.5v-109.575c0-4.143-3.358-7.5-7.5-7.5h-56.419v-47.551h38.323c4.142 0 7.5-3.357 7.5-7.5s-3.358-7.5-7.5-7.5h-38.324v-54.2h96.347l-2.768 54.2h-19.255c-4.142 0-7.5 3.357-7.5 7.5s3.358 7.5 7.5 7.5h18.489l-13.659 267.476c-1.135 22.241-19.469 39.663-41.739 39.663h-134.182c-22.27 0-40.604-17.422-41.739-39.663l-1.806-35.363c-.211-4.138-3.728-7.32-7.873-7.107-4.137.211-7.319 3.736-7.107 7.873l1.806 35.363c1.543 30.223 26.458 53.897 56.72 53.897h134.183c30.262 0 55.177-23.675 56.72-53.897l17.231-337.441h11.956c4.142 0 7.5-3.357 7.5-7.5v-32.612c0-4.143-3.358-7.5-7.5-7.5zm-167.676-58.05h29.352v58.05h-29.352zm-108.579 159.861-2.768-54.2h96.347v54.2zm44.66 172.126v-94.575h27.095v94.575zm93.271 57.396h-29.352v-42.396h29.352zm63.919-57.396h-115.095v-94.575h115.095zm-63.919-109.575h-29.352v-47.551h29.352zm0-62.551h-29.352v-54.2h29.352z"/><path d="m243.176 286.533c0 4.143 3.358 7.5 7.5 7.5h55c4.142 0 7.5-3.357 7.5-7.5s-3.358-7.5-7.5-7.5h-55c-4.142 0-7.5 3.358-7.5 7.5z"/><path d="m295 305.366h-33.648c-4.142 0-7.5 3.357-7.5 7.5s3.358 7.5 7.5 7.5h33.648c4.142 0 7.5-3.357 7.5-7.5s-3.358-7.5-7.5-7.5z"/><circle cx="177.406" cy="401.667" r="7.5"/><circle cx="324" cy="457.667" r="7.5"/></g></g></svg>