<?xml version="1.0" encoding="UTF-8" standalone="no"?>
<!-- Created with Inkscape (http://www.inkscape.org/) -->

<svg
   xmlns:dc="http://purl.org/dc/elements/1.1/"
   xmlns:cc="http://creativecommons.org/ns#"
   xmlns:rdf="http://www.w3.org/1999/02/22-rdf-syntax-ns#"
   xmlns:svg="http://www.w3.org/2000/svg"
   xmlns="http://www.w3.org/2000/svg"
   xmlns:sodipodi="http://sodipodi.sourceforge.net/DTD/sodipodi-0.dtd"
   xmlns:inkscape="http://www.inkscape.org/namespaces/inkscape"
   width="1052.3622"
   height="744.09448"
   id="svg2"
   version="1.1"
   inkscape:version="0.92.2 5c3e80d, 2017-08-06"
   sodipodi:docname="tazzina-3.svg">
  <defs
     id="defs4">
    <filter
       inkscape:collect="always"
       style="color-interpolation-filters:sRGB"
       id="filter884"
       x="-0.061917452"
       width="1.1238349"
       y="-0.13056555"
       height="1.2611311">
      <feGaussianBlur
         inkscape:collect="always"
         stdDeviation="9.7999039"
         id="feGaussianBlur886" />
    </filter>
  </defs>
  <sodipodi:namedview
     id="base"
     pagecolor="#ffffff"
     bordercolor="#666666"
     borderopacity="1.0"
     inkscape:pageopacity="0.0"
     inkscape:pageshadow="2"
     inkscape:zoom="0.85069842"
     inkscape:cx="365.13694"
     inkscape:cy="372.04724"
     inkscape:document-units="px"
     inkscape:current-layer="layer1"
     showgrid="false"
     inkscape:window-width="1440"
     inkscape:window-height="851"
     inkscape:window-x="0"
     inkscape:window-y="1"
     inkscape:window-maximized="1" />
  <metadata
     id="metadata7">
    <rdf:RDF>
      <cc:Work
         rdf:about="">
        <dc:format>image/svg+xml</dc:format>
        <dc:type
           rdf:resource="http://purl.org/dc/dcmitype/StillImage" />
        <dc:title />
      </cc:Work>
    </rdf:RDF>
  </metadata>
  <g
     inkscape:label="Layer 1"
     inkscape:groupmode="layer"
     id="layer1"
     transform="translate(0,-308.2677)">
    <g
       id="g1027">
      <g
         transform="matrix(2.7891427,0,0,2.7891427,-427.96169,-1179.1222)"
         id="g3180">
        <ellipse
           style="fill:#ffffff;stroke:#000000"
           id="path3158"
           transform="matrix(1.1914991,0,0,1.0718213,-568.74902,269.92388)"
           cx="764.04462"
           cy="370.36197"
           rx="113.29414"
           ry="85.661423" />
        <ellipse
           transform="matrix(1.1295093,0,0,1.016058,-521.38607,290.57649)"
           id="path3160"
           style="fill:#ffffff;stroke:#000000"
           cx="764.04462"
           cy="370.36197"
           rx="113.29414"
           ry="85.661423" />
      </g>
      <g
         transform="matrix(2.7891427,0,0,2.7891427,-427.96169,-1179.1222)"
         id="g3186">
        <path
           style="fill:#ffffff;stroke:#000000;stroke-width:1.15158117"
           d="m 451.8007,591.57691 c -1.63005,-0.0277 -3.30027,0.0537 -5,0.21875 -5.3209,0.51655 -10.92283,1.9744 -16.46875,4.46875 -19.71876,8.86883 -31.17135,27.32716 -25.59375,41.21875 5.57761,13.89158 26.06247,17.96256 45.78125,9.09375 19.71876,-8.86883 31.20261,-27.32716 25.625,-41.21875 -3.50779,-8.73651 -12.93343,-13.58772 -24.34375,-13.78125 z m -5.5625,10.53125 c 8.071,-0.0258 14.78924,3.0255 17.25,8.65625 3.81793,8.7362 -4.03356,20.32878 -17.53125,25.90625 -13.49767,5.57747 -27.52585,3.04871 -31.34375,-5.6875 -3.81792,-8.73621 4.03357,-20.32878 17.53125,-25.90625 4.21803,-1.74295 8.4737,-2.72412 12.46875,-2.9375 0.54932,-0.0293 1.08693,-0.0295 1.625,-0.0312 z"
           id="path3175"
           inkscape:connector-curvature="0" />
        <path
           style="fill:none;stroke:#000000;stroke-width:1.01743853px;stroke-linecap:butt;stroke-linejoin:miter;stroke-opacity:1"
           d="m 451.8826,599.13897 c 26.8656,0.58912 30.06501,36.95884 -18.98462,49.13643"
           id="path3184"
           inkscape:connector-curvature="0"
           sodipodi:nodetypes="cc" />
      </g>
      <path
         sodipodi:nodetypes="cccccc"
         inkscape:connector-curvature="0"
         id="path3226"
         d="m 780.91251,1037.4459 c 14.90626,4.6126 44.8305,-16.2745 43.09378,-33.149 C 813.96,973.75862 450.89074,814.52367 407.98547,802.0875 353.97297,701.8972 247.59735,668.51771 214.06338,707.61265 c -38.56902,60.69546 42.44868,160.77425 182.3199,120.99413 77.94666,9.33735 270.034,165.86842 384.52923,208.83912 z"
         style="fill:#ffffff;stroke:#000000;stroke-width:2.78914261px;stroke-linecap:butt;stroke-linejoin:miter;stroke-opacity:1" />
      <path
         style="fill:#803300;stroke:#cccccc;stroke-width:2.51229405px;stroke-linecap:butt;stroke-linejoin:miter;stroke-opacity:1"
         d="m 777.61103,1026.8828 c 14.2789,3.9067 33.58292,-9.4638 31.91925,-23.7563 C 799.90682,977.26128 445.63753,816.4701 404.538,805.93688 c -4.84259,-7.9425 -10.08674,-15.49651 -15.6412,-22.63802 -5.69284,-7.31941 -58.71946,9.83722 -51.23667,4.90437 7.06978,-4.66057 47.3698,-11.35591 18.46851,-38.1748 -38.34812,-35.58505 -51.72351,-38.29108 -78.02019,-44.83781 -6.16741,-1.53543 33.79568,54.32971 28.18278,53.96073 -7.773,-0.51102 -60.82359,-56.70918 -67.09522,-54.86815 -6.3559,1.86593 -11.81018,4.97413 -16.09813,9.39422 -36.94579,51.40789 39.22207,143.37332 173.20646,109.68033 74.66611,7.90853 271.63023,167.12964 381.30669,203.52505 z"
         id="path3228"
         inkscape:connector-curvature="0"
         sodipodi:nodetypes="cccssssssccc" />
      <path
         sodipodi:nodetypes="cccc"
         inkscape:connector-curvature="0"
         id="path3230"
         d="m 777.76856,1021.308 c 13.25336,0.4107 15.83901,-10.3081 15.07244,-21.1134 -68.80483,-35.0551 -137.9081,-70.11024 -211.30461,-105.16539 53.1825,40.57308 128.04853,85.70573 196.23217,126.27879 z"
         style="fill:#ffffff;stroke:#cccccc;stroke-width:2.78914261px;stroke-linecap:butt;stroke-linejoin:miter;stroke-opacity:1" />
      <path
         sodipodi:nodetypes="cccc"
         inkscape:connector-curvature="0"
         id="path3166"
         d="m 238.14009,484.6666 558.20552,12.56305 C 789.06405,596.6557 697.05877,817.04941 521.06615,807.11738 279.40264,805.78579 247.48497,579.24035 238.14009,484.6666 Z"
         style="fill:#ffffff;stroke:#000000;stroke-width:2.89609885px;stroke-linecap:butt;stroke-linejoin:miter;stroke-opacity:1" />
      <g
         transform="matrix(2.7891427,0,0,2.7891427,-1597.5231,-1209.9508)"
         id="g3154">
        <ellipse
           style="fill:#ffffff;fill-rule:evenodd;stroke:#000000;stroke-width:1px;stroke-linecap:butt;stroke-linejoin:miter;stroke-opacity:1"
           id="path3150"
           transform="matrix(1.0582432,0,0,0.99975076,-45.640599,308.3421)"
           cx="759.89972"
           cy="298.51691"
           rx="94.642059"
           ry="57.337887" />
        <ellipse
           transform="matrix(0.95712562,0,0,0.90422227,31.198621,336.85897)"
           id="path3152"
           style="fill:#ffffff;fill-rule:evenodd;stroke:#000000;stroke-width:1px;stroke-linecap:butt;stroke-linejoin:miter;stroke-opacity:1"
           cx="759.89972"
           cy="298.51691"
           rx="94.642059"
           ry="57.337887" />
      </g>
      <path
         inkscape:connector-curvature="0"
         id="path3224"
         d="m 749.51272,516.37054 c 0,59.99867 -102.56425,108.63722 -229.0837,108.63722 -126.51944,0 -229.08369,-48.63855 -229.08369,-108.63722 0,-59.99867 102.56425,-108.63722 229.08369,-108.63722 126.51945,0 229.0837,48.63855 229.0837,108.63722 z"
         style="fill:#aa4400;fill-rule:evenodd;stroke:#aa4400;stroke-width:2.80447817px;stroke-linecap:butt;stroke-linejoin:miter;stroke-opacity:1" />
      <path
         style="fill:#e9ddaf;fill-rule:evenodd;stroke:#e9ddaf;stroke-width:2.325;stroke-linecap:butt;stroke-linejoin:miter;stroke-opacity:1;stroke-miterlimit:4;stroke-dasharray:none;filter:url(#filter884)"
         d="m 710.35746,516.37054 c 0,49.74363 -85.03384,90.06882 -189.92844,90.06882 -104.89459,0 -189.92843,-40.32519 -189.92843,-90.06882 0,-49.74363 85.03384,-90.06882 189.92843,-90.06882 104.8946,0 189.92844,40.32519 189.92844,90.06882 z"
         id="path50"
         inkscape:connector-curvature="0" />
      <path
         transform="matrix(0.47221158,0,0,0.47221158,271.14989,270.18338)"
         inkscape:connector-curvature="0"
         id="path888"
         d="m 710.35746,516.37054 c 0,49.74363 -85.03384,90.06882 -189.92844,90.06882 -104.89459,0 -189.92843,-40.32519 -189.92843,-90.06882 0,-49.74363 85.03384,-90.06882 189.92843,-90.06882 104.8946,0 189.92844,40.32519 189.92844,90.06882 z"
         style="fill:#aa4400;fill-rule:evenodd;stroke:#803300;stroke-width:2.32500005;stroke-linecap:butt;stroke-linejoin:miter;stroke-miterlimit:4;stroke-dasharray:none;stroke-opacity:1;filter:url(#filter884)" />
      <g
         transform="rotate(-153.97418,333.68106,592.80794)"
         id="text950"
         style="font-style:normal;font-weight:normal;font-size:27.56651497px;line-height:1.25;font-family:sans-serif;letter-spacing:0px;word-spacing:0px;fill:#552200;fill-opacity:1;stroke:none;stroke-width:0.68916285"
         aria-label="CAPPUCCINO">
        <path
           inkscape:connector-curvature="0"
           id="path963"
           style="fill:#552200;stroke-width:0.68916285"
           d="m 106.83574,549.58836 -2.8585,-0.22099 q 1.38075,-1.2703 2.13185,-2.77827 0.75006,-1.49456 0.88494,-3.23918 0.2656,-3.43556 -1.70026,-5.4236 -1.95245,-1.98699 -5.924816,-2.2941 -3.95895,-0.30606 -6.207018,1.35619 -2.234648,1.66329 -2.500253,5.09885 -0.134877,1.74462 0.376556,3.33671 0.510396,1.6055 1.679485,3.07292 l -2.831655,-0.21892 q -0.856275,-1.49724 -1.215937,-3.13159 -0.360699,-1.62093 -0.223746,-3.39239 0.351718,-4.54944 3.332008,-6.9516 2.993711,-2.40113 7.811551,-2.02866 4.831255,0.3735 7.406915,3.2052 2.58908,2.83274 2.23736,7.38218 -0.13902,1.7983 -0.74458,3.34453 -0.59317,1.56068 -1.6539,2.88272 z" />
        <path
           inkscape:connector-curvature="0"
           id="path965"
           style="fill:#552200;stroke-width:0.68916285"
           d="m 102.99723,562.88054 -8.886982,-5.88577 -1.696658,7.19224 z m 2.95934,-0.87847 -0.70772,3.00005 -21.317701,2.84021 0.648995,-2.75113 5.437842,-0.59805 2.079875,-8.81672 -4.597239,-2.96533 0.658267,-2.79043 z" />
        <path
           inkscape:connector-curvature="0"
           id="path967"
           style="fill:#552200;stroke-width:0.68916285"
           d="m 98.413392,579.66828 -7.022446,-2.77589 -1.25682,3.17951 q -0.697683,1.765 -0.164894,3.09007 0.53279,1.32508 2.222683,1.99307 1.677376,0.66305 2.972174,0.0604 1.294799,-0.60265 1.992483,-2.36765 z m 3.077458,-1.70719 -2.256336,5.70808 q -1.241975,3.14195 -3.302355,4.18014 -2.052809,1.05565 -4.794192,-0.028 -2.766418,-1.09353 -3.542614,-3.26746 -0.781146,-2.1614 0.46083,-5.30335 l 1.25682,-3.1795 -7.510636,-2.96887 0.999518,-2.52858 z" />
        <path
           inkscape:connector-curvature="0"
           id="path969"
           style="fill:#552200;stroke-width:0.68916285"
           d="m 90.584463,597.02916 -6.583541,-3.69828 -1.674445,2.98078 q -0.929515,1.65469 -0.58044,3.03955 0.349074,1.38486 1.933349,2.27482 1.572539,0.88337 2.936829,0.46098 1.364289,-0.42238 2.293803,-2.07707 z m 3.279716,-1.27622 -3.00609,5.35132 q -1.654667,2.94558 -3.836314,3.69619 -2.176504,0.76893 -4.746549,-0.67479 -2.593517,-1.4569 -3.069206,-3.71569 -0.482282,-2.24706 1.172386,-5.19263 l 1.674444,-2.98079 -7.041221,-3.95538 1.331646,-2.37054 z" />
        <path
           inkscape:connector-curvature="0"
           id="path971"
           style="fill:#552200;stroke-width:0.68916285"
           d="m 84.005655,612.38234 -1.676958,2.1573 -9.638779,-7.49261 q -2.550503,-1.98262 -4.395672,-1.93371 -1.834542,0.0572 -3.445413,2.12945 -1.60261,2.06166 -1.205461,3.85361 0.407776,1.80021 2.95828,3.78282 l 9.638779,7.49261 -1.676958,2.1573 -9.904456,-7.69913 q -3.103113,-2.41218 -3.488724,-5.18398 -0.393871,-2.76117 1.935696,-5.75801 2.337828,-3.00747 5.119093,-3.31753 2.773004,-0.29943 5.876117,2.11274 z" />
        <path
           inkscape:connector-curvature="0"
           id="path973"
           style="fill:#552200;stroke-width:0.68916285"
           d="m 56.842211,639.77724 -1.95643,-2.09576 q 1.876191,-0.002 3.449245,-0.60518 1.563214,-0.59385 2.842318,-1.78791 2.518849,-2.35139 2.414924,-5.14533 -0.09474,-2.7841 -2.813534,-5.69652 -2.70961,-2.90258 -5.489812,-3.19817 -2.771017,-0.28575 -5.289866,2.06564 -1.279103,1.19407 -1.978917,2.7128 -0.709653,1.52792 -0.840671,3.39953 l -1.93806,-2.07608 q 0.381633,-1.68205 1.22184,-3.12929 0.830368,-1.43806 2.12915,-2.65049 3.335507,-3.11376 7.155481,-2.86813 3.829159,0.25547 7.126616,3.78776 3.306642,3.54213 3.289307,7.36996 -0.0082,3.83766 -3.343658,6.95141 -1.31846,1.23081 -2.810156,1.96044 -1.492351,0.74865 -3.167777,1.00532 z" />
        <path
           inkscape:connector-curvature="0"
           id="path975"
           style="fill:#552200;stroke-width:0.68916285"
           d="m 38.750677,652.59631 -1.608252,-2.37347 q 1.853887,0.28844 3.501353,-0.0637 1.636323,-0.34458 3.08492,-1.32614 2.85262,-1.93293 3.182649,-4.70925 0.33758,-2.76518 -1.897362,-6.06353 -2.227392,-3.2872 -4.928272,-4.00979 -2.69333,-0.71145 -5.545951,1.22147 -1.448596,0.98157 -2.375174,2.3736 -0.937722,1.39957 -1.357017,3.22831 l -1.593151,-2.35118 q 0.637528,-1.60265 1.691734,-2.90231 1.043062,-1.2921 2.513945,-2.28877 3.777494,-2.55961 7.513338,-1.72534 3.743395,0.84541 6.454017,4.84576 2.718173,4.0115 2.108228,7.79045 -0.602394,3.7901 -4.379888,6.34972 -1.493169,1.01176 -3.079866,1.50157 -1.590289,0.5085 -3.285251,0.50259 z" />
        <path
           inkscape:connector-curvature="0"
           id="path977"
           style="fill:#552200;stroke-width:0.68916285"
           d="m 33.882412,656.88057 -2.406024,1.26641 -9.360186,-17.78314 2.406025,-1.26641 z" />
        <path
           inkscape:connector-curvature="0"
           id="path979"
           style="fill:#552200;stroke-width:0.68916285"
           d="m 24.552157,661.69106 -3.416831,1.3151 -14.3547928,-12.48906 6.0388308,15.68979 -2.462128,0.94764 -7.2185542,-18.75488 3.4168305,-1.3151 14.3547927,12.48906 -6.03883,-15.68979 2.462127,-0.94764 z" />
        <path
           inkscape:connector-curvature="0"
           id="path981"
           style="fill:#552200;stroke-width:0.68916285"
           d="m -6.5472554,669.43922 q 2.9052196,-0.57331 4.1945658,-3.07779 1.2761406,-2.50188 0.5386589,-6.23905 -0.7348757,-3.72396 -2.8657654,-5.5535 -2.1440952,-1.82694 -5.0493148,-1.25363 -2.9052191,0.57331 -4.1681551,3.07258 -1.27614,2.50187 -0.541264,6.22583 0.737481,3.73717 2.868371,5.56672 2.117684,1.83214 5.0229036,1.25884 z m 0.4273745,2.16571 q -4.1465411,0.81826 -7.1790371,-1.47819 -3.02989,-2.28325 -3.952393,-6.95801 -0.919898,-4.66156 1.012891,-7.93784 1.935394,-3.26309 6.081935,-4.08135 4.1597458,-0.82087 7.2028415,1.45977 3.02989004,2.28325 3.95239359,6.95801 0.92250351,4.67476 -1.01289077,7.93784 -1.94599392,3.27889 -6.10574022,4.09977 z" />
      </g>
      <g
         transform="matrix(0.30924759,-0.124116,0.124116,0.30924759,545.10349,544.89658)"
         id="g994">
        <path
           inkscape:connector-curvature="0"
           style="fill:#d40000;stroke:#803300;stroke-width:1.8548311;stroke-miterlimit:4;stroke-dasharray:none;stroke-opacity:1"
           d="M 5.8769531,341.52539 A 123.66308,78.406143 0 0 0 89.574219,267.42773 123.66308,78.406143 0 0 0 5.8769531,193.31641 Z"
           id="path989"
           transform="translate(0,308.2677)" />
        <path
           inkscape:connector-curvature="0"
           style="fill:#008000;stroke:#803300;stroke-width:1.8548311;stroke-miterlimit:4;stroke-dasharray:none;stroke-opacity:1"
           d="m -74.056641,193.33008 a 123.66308,78.406143 0 0 0 -83.695309,74.09765 123.66308,78.406143 0 0 0 83.695309,74.11133 z"
           id="path987"
           transform="translate(0,308.2677)" />
        <path
           inkscape:connector-curvature="0"
           style="fill:none;stroke:#803300;stroke-width:1.8548311;stroke-miterlimit:4;stroke-dasharray:none;stroke-opacity:1"
           d="m -74.056641,193.33008 v 148.20898 a 123.66308,78.406143 0 0 0 39.966797,4.29492 123.66308,78.406143 0 0 0 39.9667971,-4.30859 V 193.31641 a 123.66308,78.406143 0 0 0 -39.9667971,-4.29493 123.66308,78.406143 0 0 0 -39.966797,4.3086 z"
           id="path958"
           transform="translate(0,308.2677)" />
      </g>
    </g>
  </g>
</svg>
