<?xml version="1.0" encoding="utf-8"?>
<!-- Uploaded to: SVG Repo, www.svgrepo.com, Generator: SVG Repo Mixer Tools -->
<svg width="800px" height="800px" viewBox="0 0 1024 1024" class="icon"  version="1.1" xmlns="http://www.w3.org/2000/svg"><path d="M575.99984 576.00112V178.850113c0-17.695956-14.495964-23.487941-31.99992-15.007963l-72.991818 32.09592c-16.511959 8.03198-23.007942 20.415949-23.007942 35.423912V576.00112h127.99968zM703.99952 576.00112V19.522511c0-17.695956-14.495964-23.487941-31.99992-15.007962l-72.991818 32.095919c-16.511959 7.99998-23.007942 20.415949-23.007942 35.391912V576.00112h127.99968zM320.00048 576.00112V83.522351c0-17.695956-14.495964-23.487941-31.99992-15.007962L215.008742 100.610308C198.496784 108.610288 192.0008 121.026257 192.0008 136.00222V576.00112h127.99968zM320.00048 576.00112V18.850513c0-17.695956 14.495964-23.487941 31.99992-15.007963l72.991818 32.09592c16.511959 8.03198 23.007942 20.415949 23.007942 35.423912V576.00112h-127.99968zM703.99952 576.00112V115.522271c0-17.695956 14.495964-23.487941 31.99992-15.007962l72.991818 32.095919c16.511959 7.99998 23.007942 20.415949 23.007942 35.391912V576.00112h-127.99968z" fill="#EDD87E" /><path d="M703.99952 115.522271V576.00112h31.99992V100.514309c-17.503956-8.511979-31.99992-2.687993-31.99992 15.007962zM320.00048 19.522511V576.00112h31.99992V4.514549c-17.503956-8.511979-31.99992-2.687993-31.99992 15.007962zM448.00016 231.361982V576.00112h31.99992V192.00208l-8.991978 3.96799c-16.511959 7.99998-23.007942 20.383949-23.007942 35.391912zM575.99984 71.394382V576.00112h31.99992V32.00248l-8.991978 3.96799c-16.511959 8.03198-23.007942 20.415949-23.007942 35.423912zM192.0008 135.394222V576.00112h31.99992V96.00232l-8.991978 3.99999C198.496784 108.00229 192.0008 120.386259 192.0008 135.394222z" fill="" /><path d="M703.99952 384.0016a191.99952 191.99952 0 0 1-383.99904 0H160.00088l31.99992 575.99856a63.99984 63.99984 0 0 0 63.99984 63.99984h511.99872a63.99984 63.99984 0 0 0 63.99984-63.99984l31.99992-575.99856h-159.9996z" fill="#EF4D4D" /><path d="M512 544.0012a223.391442 223.391442 0 0 1-178.111555-88.543779C362.240374 526.081245 431.264202 576.00112 512 576.00112a191.99952 191.99952 0 0 0 178.111555-120.543699A223.327442 223.327442 0 0 1 512 544.0012z" fill="" /><path d="M831.9992 928.00024a63.99984 63.99984 0 0 1-63.99984 63.99984H256.00064a63.99984 63.99984 0 0 1-63.99984-63.99984h-1.791996L192.0008 960.00016a63.99984 63.99984 0 0 0 63.99984 63.99984h511.99872a63.99984 63.99984 0 0 0 63.99984-63.99984l1.791996-31.99992H831.9992zM512 640.00096a127.99968 127.99968 0 1 0 0 255.99936 127.99968 127.99968 0 0 0 0-255.99936z m0 223.99944a96.03176 96.03176 0 0 1 0-191.99952 96.03176 96.03176 0 0 1 0 191.99952z" fill="" /></svg>