<?xml version="1.0" encoding="iso-8859-1"?>
<!-- Uploaded to: SVG Repo, www.svgrepo.com, Generator: SVG Repo Mixer Tools -->
<svg height="800px" width="800px" version="1.1" id="Layer_1" xmlns="http://www.w3.org/2000/svg" xmlns:xlink="http://www.w3.org/1999/xlink" 
	 viewBox="0 0 501.551 501.551" xml:space="preserve">
<path style="fill:#FFD15C;" d="M439.902,436.767c-111.804,21.943-266.449,21.943-378.253,0
	c-19.853-124.343-19.853-247.641,0-371.984c111.804-21.943,266.449-21.943,378.253,0
	C459.755,189.127,459.755,312.424,439.902,436.767z"/>
<g>
	<polygon style="fill:#F8B64C;" points="451.396,486.922 451.396,486.922 451.396,486.922 439.902,436.767 61.649,436.767 
		50.155,486.922 50.155,486.922 50.155,486.922 50.155,486.922 50.155,486.922 64.784,501.551 79.412,486.922 79.412,486.922 
		92.996,501.551 107.625,486.922 107.625,486.922 122.253,501.551 135.837,486.922 135.837,486.922 150.465,501.551 
		165.094,486.922 165.094,486.922 179.722,501.551 193.306,486.922 193.306,486.922 207.935,501.551 222.563,486.922 
		222.563,486.922 236.147,501.551 250.776,486.922 250.776,486.922 265.404,501.551 278.988,486.922 278.988,486.922 
		293.616,501.551 308.245,486.922 308.245,486.922 321.829,501.551 336.457,486.922 336.457,486.922 351.086,501.551 
		365.714,486.922 365.714,486.922 379.298,501.551 393.927,486.922 393.927,486.922 408.555,501.551 422.139,486.922 
		422.139,486.922 436.767,501.551 451.396,486.922 	"/>
	<polygon style="fill:#F8B64C;" points="436.767,0 422.139,14.629 408.555,0 393.927,14.629 379.298,0 365.714,14.629 351.086,0 
		336.457,14.629 321.829,0 308.245,14.629 293.616,0 278.988,14.629 265.404,0 250.776,14.629 236.147,0 222.563,14.629 207.935,0 
		193.306,14.629 179.722,0 165.094,14.629 150.465,0 135.837,14.629 122.253,0 107.625,14.629 92.996,0 79.412,14.629 64.784,0 
		50.155,14.629 61.649,64.784 439.902,64.784 451.396,14.629 	"/>
</g>
<ellipse transform="matrix(-0.4695 -0.8829 0.8829 -0.4695 147.1146 589.9061)" style="fill:#FF7058;" cx="250.773" cy="250.758" rx="100.307" ry="152.551"/>
<g>
	<path style="fill:#F8B64C;" d="M382.433,364.669c-4.18,0-7.314-3.135-7.314-7.314c0-25.078,20.898-45.975,45.976-45.975
		c4.18,0,7.314,3.135,7.314,7.314s-3.135,7.314-7.314,7.314c-16.718,0-30.302,13.584-30.302,30.302
		C389.747,360.49,386.612,364.669,382.433,364.669z"/>
	<path style="fill:#F8B64C;" d="M374.073,143.151c-4.18,0-7.314-3.135-7.314-7.314c0-25.078,20.898-45.976,45.976-45.976
		c4.18,0,7.314,3.135,7.314,7.314c0,4.18-3.135,7.314-7.314,7.314c-16.718,0-30.302,13.584-30.302,30.302
		C381.388,140.016,378.253,143.151,374.073,143.151z"/>
	<path style="fill:#F8B64C;" d="M272.718,382.433c0-4.18,3.135-7.314,7.314-7.314c25.078,0,45.975,20.898,45.975,45.976
		c0,4.18-3.135,7.314-7.314,7.314c-4.18,0-7.314-3.135-7.314-7.314c0-16.718-13.584-30.302-30.302-30.302
		C275.853,390.792,272.718,386.612,272.718,382.433z"/>
	<path style="fill:#F8B64C;" d="M82.547,191.216c-4.18,0-7.314-3.135-7.314-7.314c0-25.078,20.898-45.976,45.976-45.976
		c4.18,0,7.314,3.135,7.314,7.314s-3.135,7.314-7.314,7.314c-16.718,0-30.302,13.584-30.302,30.302
		C89.861,187.037,86.727,191.216,82.547,191.216z"/>
	<path style="fill:#F8B64C;" d="M159.869,97.176c0-4.18,3.135-7.314,7.314-7.314c25.078,0,45.976,20.898,45.976,45.976
		c0,4.18-3.135,7.314-7.314,7.314c-4.18,0-7.314-3.135-7.314-7.314c0-16.718-13.584-30.302-30.302-30.302
		C163.004,105.535,159.869,101.355,159.869,97.176z"/>
</g>
<g>
	<path style="fill:#FFFFFF;" d="M151.51,288.392l15.673,1.045c0,8.359-2.09,15.673-6.269,20.898
		c-4.18,5.224-9.404,8.359-17.763,10.449c-9.404,2.09-18.808,1.045-26.122-3.135c-8.359-5.224-13.584-12.539-16.718-24.033
		s-3.135-21.943,2.09-30.302c4.18-8.359,11.494-13.584,21.943-16.718c8.359-2.09,16.718-2.09,24.033,2.09
		c4.18,2.09,7.314,6.269,11.494,11.494l-14.629,6.269c-2.09-3.135-4.18-6.269-7.314-7.314c-3.135-1.045-7.314-2.09-10.449-1.045
		c-5.224,1.045-9.404,4.18-11.494,9.404c-2.09,5.224-2.09,11.494,0,19.853c2.09,9.404,6.269,15.673,10.449,17.763
		c4.18,3.135,9.404,4.18,14.629,2.09c4.18-1.045,7.314-3.135,9.404-6.269C150.465,297.796,151.51,293.616,151.51,288.392z"/>
	<path style="fill:#FFFFFF;" d="M184.947,307.2l-18.808-72.098l14.629-4.18l7.314,28.212l28.212-7.314l-7.314-28.212l14.629-4.18
		l19.853,72.098l-14.629,4.18l-8.359-31.347l-28.212,7.314l8.359,31.347L184.947,307.2z"/>
	<path style="fill:#FFFFFF;" d="M258.09,287.347l-19.853-72.098l14.629-4.18l19.853,72.098L258.09,287.347z"/>
	<path style="fill:#FFFFFF;" d="M286.302,280.033l-19.853-72.098l22.988-6.269c8.359-2.09,14.629-3.135,17.763-3.135
		c4.18,0,8.359,1.045,12.539,4.18c4.18,3.135,6.269,7.314,8.359,12.539c1.045,4.18,1.045,8.359,1.045,11.494
		c-1.045,3.135-2.09,6.269-4.18,8.359c-2.09,2.09-4.18,4.18-6.269,5.224c-3.135,2.09-8.359,3.135-14.629,5.224l-9.404,2.09
		l7.314,27.167L286.302,280.033z M284.212,216.294l5.224,20.898l8.359-2.09c5.224-1.045,9.404-3.135,11.494-4.18
		c2.09-1.045,3.135-3.135,3.135-5.225c1.045-2.09,1.045-4.18,0-6.269c-1.045-3.135-2.09-4.18-4.18-6.269
		c-2.09-1.045-4.18-2.09-6.269-2.09c-2.09,0-5.224,1.045-10.449,2.09L284.212,216.294z"/>
	<path style="fill:#FFFFFF;" d="M342.727,239.282l13.584-5.224c2.09,4.18,5.225,7.314,8.359,9.404c3.135,1.045,7.314,2.09,11.494,0
		c4.18-1.045,8.359-3.135,9.404-6.269c2.09-3.135,2.09-5.224,2.09-8.359c0-2.09-1.045-3.135-3.135-4.18c-1.045,0-2.09,0-5.225,0
		c-2.09,0-6.269,0-12.539,0c-8.359,0-14.629-1.045-18.808-3.135c-5.224-3.135-9.404-7.314-10.449-12.539
		c-1.045-4.18-1.045-7.314,0-11.494c1.045-4.18,3.135-7.314,7.314-9.404c3.135-3.135,8.359-5.225,13.584-6.269
		c9.404-2.09,16.718-2.09,21.943,0c5.224,3.135,9.404,7.314,11.494,13.584l-14.629,4.18c-2.09-3.135-4.18-6.269-6.269-7.314
		c-2.09-1.045-6.269-1.045-9.404,0c-4.18,1.045-7.314,3.135-9.404,5.224c-1.045,1.045-2.09,3.135-1.045,5.224
		c0,2.09,2.09,3.135,3.135,4.18c2.09,1.045,7.314,1.045,14.629,1.045s13.584,0,16.718,1.045c4.18,1.045,7.314,2.09,10.449,5.224
		c3.135,2.09,5.224,6.269,6.269,10.449c1.045,4.18,1.045,8.359,0,12.539c-1.045,4.18-4.18,7.314-7.314,10.449
		c-4.18,3.135-8.359,5.225-14.629,7.314c-9.404,2.09-16.718,2.09-22.988-1.045C351.086,252.865,345.861,247.641,342.727,239.282z"/>
</g>
</svg>