<?xml version="1.0" standalone="no"?>
<!DOCTYPE svg PUBLIC "-//W3C//DTD SVG 20010904//EN"
 "http://www.w3.org/TR/2001/REC-SVG-20010904/DTD/svg10.dtd">
<svg version="1.0" xmlns="http://www.w3.org/2000/svg"
 viewBox="0 0 2600.000000 2600.000000"
 preserveAspectRatio="xMidYMid meet">
<metadata>
Created by potrace 1.15, written by Peter Selinger 2001-2017
</metadata>
<g transform="translate(0.000000,2600.000000) scale(0.100000,-0.100000)"
fill="#953d21" stroke="none">
<path d="M20067 18061 l-409 -128 -166 48 c-92 27 -176 49 -187 49 -11 0
-3173 -979 -7027 -2177 l-7007 -2177 -124 -145 -124 -146 -499 -154 c-274 -85
-504 -159 -511 -165 -12 -12 -225 -418 -221 -421 2 -1 92 -52 200 -114 109
-62 198 -114 198 -116 0 -1 -47 -94 -105 -205 -58 -111 -105 -206 -105 -210 0
-5 88 -59 195 -120 107 -61 195 -115 195 -120 0 -4 -47 -99 -105 -210 -58
-110 -105 -203 -105 -205 0 -2 89 -54 198 -116 108 -61 198 -113 200 -114 2
-2 -22 -51 -52 -109 -31 -58 -81 -153 -111 -210 l-54 -104 199 -114 c110 -62
200 -116 200 -120 0 -3 -47 -97 -105 -208 -58 -110 -105 -204 -105 -208 0 -4
90 -58 200 -120 l199 -113 -56 -107 c-31 -59 -80 -153 -109 -210 l-53 -102 37
-23 c20 -13 110 -65 200 -116 89 -51 162 -94 162 -96 0 -2 -47 -94 -105 -205
-58 -110 -105 -205 -105 -210 0 -4 86 -57 191 -117 105 -59 193 -113 196 -118
2 -6 -44 -102 -102 -214 -59 -112 -103 -207 -98 -211 17 -15 389 -223 398
-223 6 0 282 84 614 187 l603 188 58 -16 58 -17 7009 2177 7008 2176 47 50 47
50 513 160 c282 87 516 162 519 166 4 4 54 100 113 214 l106 206 -187 106
c-104 58 -194 110 -202 115 -10 7 9 52 93 213 58 113 106 209 106 214 0 5 -88
58 -195 118 -107 60 -195 114 -195 119 0 5 47 100 106 212 l105 204 -23 14
c-13 8 -72 43 -133 77 -60 35 -140 80 -178 102 l-68 39 106 203 c58 112 105
208 105 214 0 6 -86 58 -190 117 -105 59 -193 111 -196 116 -2 5 43 100 101
212 58 112 105 206 105 209 0 3 -90 57 -199 119 l-200 113 110 212 109 212
-187 106 c-104 58 -194 110 -202 115 -10 7 10 53 94 215 58 113 104 210 101
215 -3 4 -91 57 -196 117 -104 59 -190 112 -190 116 0 5 47 101 106 213 l105
204 -23 14 c-64 41 -378 217 -385 216 -4 0 -192 -58 -416 -128z m-675 -490
c115 -21 210 -40 213 -42 6 -7 975 -3442 971 -3446 -1 -2 -249 708 -550 1578
l-546 1581 -158 171 c-86 95 -164 180 -171 190 -13 17 -12 18 10 12 13 -3 117
-23 231 -44z m-821 -1723 c140 -59 223 -269 173 -439 -12 -41 -28 -66 -70
-106 -29 -29 -48 -53 -41 -53 40 0 91 -26 131 -66 25 -25 97 -111 160 -192 63
-81 127 -162 141 -180 19 -23 23 -33 13 -36 -64 -22 -302 -95 -303 -93 -4 19
-192 284 -225 318 -66 69 -103 76 -216 43 -49 -14 -93 -29 -97 -34 -9 -8 30
-156 90 -343 19 -60 33 -110 31 -113 -2 -2 -67 -23 -144 -47 l-139 -43 -22 90
c-32 135 -278 1003 -302 1066 -12 30 -21 56 -21 57 0 1 33 12 73 23 39 12 173
53 297 91 301 94 365 101 471 57z m-1336 -370 c28 -48 662 -956 701 -1005 l34
-42 -117 -36 c-65 -20 -137 -42 -161 -50 l-42 -14 -26 52 c-54 106 -125 208
-143 203 -9 -3 -96 -30 -195 -61 -98 -30 -180 -55 -182 -55 -2 0 -4 -69 -4
-154 l0 -155 -127 -40 c-71 -22 -141 -43 -157 -47 l-28 -7 6 84 c11 140 66
1213 63 1233 -2 17 21 27 163 72 91 29 172 53 180 53 9 1 24 -14 35 -31z
m-977 -348 c64 -29 105 -71 137 -142 58 -128 41 -253 -45 -339 l-49 -49 48 0
c163 0 282 -139 284 -330 1 -94 -30 -169 -96 -233 -66 -64 -140 -95 -462 -195
-159 -50 -297 -93 -306 -97 -13 -5 -18 6 -28 55 -23 114 -289 1047 -326 1142
-5 13 5 19 52 33 32 9 159 48 283 87 124 39 252 76 285 84 75 17 162 11 223
-16z m-1503 -791 c84 -31 179 -127 227 -229 45 -95 74 -178 65 -186 -4 -4
-143 -49 -309 -101 -166 -52 -304 -95 -305 -97 -2 -1 10 -23 27 -49 68 -108
200 -115 301 -18 37 36 50 56 55 89 l7 42 128 0 c71 0 129 -2 129 -5 0 -2 -5
-28 -11 -57 -41 -192 -197 -323 -428 -359 -131 -20 -251 20 -346 115 -60 60
-98 124 -131 222 -103 308 47 589 351 654 62 14 174 4 240 -21z m-1041 -31 c3
-7 14 -56 26 -108 12 -52 24 -98 26 -102 3 -4 45 7 94 24 50 17 91 30 93 27 2
-2 17 -53 34 -114 34 -125 41 -113 -68 -140 -37 -10 -71 -20 -77 -24 -17 -10
100 -411 126 -432 26 -21 83 -12 136 21 21 12 38 21 40 19 1 -2 19 -48 40
-102 43 -111 43 -110 -36 -149 -203 -99 -358 -87 -417 30 -10 21 -48 143 -85
272 -37 129 -69 241 -71 247 -3 9 -27 5 -87 -17 -45 -16 -84 -27 -86 -25 -6 6
-62 199 -62 215 0 11 22 21 74 35 41 10 80 21 86 25 8 5 0 40 -25 115 -20 59
-33 111 -28 115 9 9 230 78 251 79 7 1 14 -5 16 -11z m-1528 -385 c24 -105 60
-240 169 -623 68 -239 133 -462 145 -494 11 -33 17 -63 13 -67 -5 -4 -66 -25
-138 -47 -91 -28 -132 -36 -136 -28 -4 6 -10 31 -14 56 -9 57 -287 1040 -310
1098 -10 24 -16 44 -14 46 4 4 259 84 271 85 4 1 10 -11 14 -26z m948 -67 c61
-19 109 -56 141 -109 13 -24 63 -176 109 -338 47 -162 92 -311 101 -332 8 -20
14 -37 11 -37 -3 0 -181 -54 -243 -74 -18 -6 -22 -2 -28 24 -4 16 -8 30 -11
30 -2 0 -22 -20 -44 -44 -78 -85 -255 -154 -366 -143 -141 14 -238 131 -239
287 0 64 4 82 27 121 60 102 195 193 386 259 84 30 92 35 86 54 -23 75 -50 92
-129 84 -86 -10 -165 -75 -165 -134 0 -13 -3 -24 -7 -24 -5 0 -53 -7 -108 -15
-55 -8 -114 -15 -132 -15 -31 0 -32 1 -26 38 11 82 35 133 89 191 123 133 399
222 548 177z m-1387 -476 c115 -57 189 -148 238 -295 106 -316 -55 -595 -380
-662 -204 -41 -388 51 -479 239 -123 256 -73 525 123 656 112 74 212 103 344
98 75 -3 97 -8 154 -36z m-975 -291 c24 -12 54 -30 68 -41 26 -20 100 -108
100 -120 0 -3 -50 -34 -111 -68 l-110 -63 -40 41 c-58 61 -137 68 -210 19 -71
-48 -95 -148 -65 -267 48 -186 165 -271 290 -210 51 24 81 66 91 126 l6 41 92
12 c51 6 109 14 130 18 l37 6 0 -50 c0 -103 -60 -230 -138 -292 -56 -43 -154
-89 -229 -107 -259 -61 -469 83 -543 373 -72 279 50 507 315 593 99 32 242 27
317 -11z m8135 -75 c-3 -3 -12 -4 -19 -1 -8 3 -5 6 6 6 11 1 17 -2 13 -5z
m-117 -34 c-180 -59 -12338 -3833 -12349 -3834 -10 -1 -158 509 -532 1834
-285 1009 -517 1838 -516 1842 1 3 270 -754 596 -1683 327 -930 597 -1691 600
-1693 4 -1 2756 797 6116 1775 3361 977 6117 1777 6125 1777 8 0 -10 -8 -40
-18z m-9046 -175 c155 -40 272 -173 321 -365 12 -47 16 -94 13 -171 -3 -98 -6
-111 -40 -180 -67 -136 -193 -230 -353 -264 -84 -18 -127 -19 -197 -4 -150 32
-271 149 -329 321 -101 301 23 558 316 651 95 30 184 34 269 12z m-1500 -157
c9 -40 34 -136 55 -212 l38 -139 31 45 c67 97 165 159 284 178 105 16 192 -12
252 -82 46 -53 64 -101 141 -375 36 -128 76 -262 89 -300 14 -37 24 -68 23
-69 -5 -4 -266 -84 -275 -84 -5 0 -13 21 -17 46 -9 65 -131 498 -150 534 -41
80 -134 80 -214 -1 -39 -39 -81 -122 -81 -160 0 -28 109 -412 134 -471 9 -21
16 -40 16 -42 0 -9 -261 -88 -274 -83 -7 3 -17 33 -24 68 -14 79 -272 992
-302 1072 -12 32 -20 60 -18 62 6 6 250 83 264 84 7 1 19 -32 28 -71z m-619
-174 c95 -26 214 -120 268 -212 l17 -30 -132 -72 -132 -72 -20 28 c-68 95
-150 129 -247 100 -140 -41 -199 -128 -199 -291 0 -200 99 -404 227 -466 37
-18 57 -21 119 -17 93 6 154 41 199 112 25 42 30 59 30 116 l0 68 125 17 c69
9 135 19 148 22 22 5 22 3 22 -83 0 -151 -43 -260 -139 -354 -137 -134 -392
-202 -576 -155 -87 23 -152 62 -226 135 -115 114 -195 294 -219 492 -35 294
93 521 356 631 129 54 258 65 379 31z"/>
<path d="M18205 15561 c-66 -21 -120 -43 -119 -47 1 -12 67 -248 70 -252 1 -2
60 15 131 37 140 44 167 62 184 124 12 45 -2 106 -34 143 -37 42 -90 41 -232
-5z"/>
<path d="M17100 14973 l0 -241 78 24 c42 13 101 31 130 40 34 10 50 20 46 27
-15 27 -238 373 -245 382 -5 5 -9 -99 -9 -232z"/>
<path d="M15890 14848 c-69 -22 -127 -42 -129 -44 -3 -3 11 -60 55 -215 4 -15
21 -12 137 25 157 50 172 58 192 96 43 84 -13 182 -103 179 -15 0 -83 -19
-152 -41z"/>
<path d="M16035 14389 c-71 -23 -134 -44 -138 -49 -9 -8 61 -270 72 -270 15 0
263 80 288 94 46 23 66 52 71 104 8 90 -50 163 -130 161 -18 0 -91 -18 -163
-40z"/>
<path d="M14505 14124 c-73 -27 -125 -95 -125 -164 0 -36 -17 -38 198 29 84
26 153 52 153 57 -1 5 -10 22 -22 37 -40 54 -123 71 -204 41z"/>
<path d="M13065 13330 c-138 -49 -218 -104 -230 -161 -13 -56 28 -109 84 -109
74 0 179 74 206 145 17 43 15 128 -3 138 -4 3 -29 -3 -57 -13z"/>
<path d="M11461 13175 c-114 -36 -161 -166 -116 -322 48 -165 167 -240 290
-184 111 50 140 168 84 338 -26 78 -94 158 -147 173 -46 12 -56 12 -111 -5z"/>
<path d="M9545 12581 c-89 -22 -155 -108 -155 -204 0 -53 31 -162 60 -214 40
-70 88 -105 151 -111 127 -12 212 73 211 213 -1 129 -66 259 -152 303 -46 23
-64 25 -115 13z"/>
</g>
</svg>
