<?xml version="1.0" encoding="iso-8859-1"?>
<!-- Uploaded to: SVG Repo, www.svgrepo.com, Generator: SVG Repo Mixer Tools -->
<svg xmlns="http://www.w3.org/2000/svg" xmlns:xlink="http://www.w3.org/1999/xlink" version="1.1" id="Layer_1"  viewBox="0 0 404.187 404.187" xml:space="preserve" width="512" height="512">
<g>
	<rect x="190.426" y="11.833" style="fill:#00B3E3;" width="23.334" height="38"/>
	<path style="fill:#0071CE;" d="M262.507,61.167c0-11-9-20-20-20h-80.828c-11,0-20,9-20,20v29.353c0,11,9,20,20,20h80.828   c11,0,20-9,20-20V61.167z"/>
	<path style="fill:#00B3E3;" d="M291.451,312.04c0-21.212-21.025-62.995-21.025-90.497c0-27.502,21.025-45.164,21.025-66.376   v-54.647c0-16.5-13.5-30-30-30H142.735c-16.5,0-30,13.5-30,30v54.647c0,21.212,21.025,38.874,21.025,66.376   c0,27.503-21.025,69.285-21.025,90.497v54.647c0,16.5,13.5,30,30,30h118.716c16.5,0,30-13.5,30-30V312.04z"/>
	<path style="fill:#0071CE;" d="M112.735,350.167v16.52c0,16.5,13.5,30,30,30h118.716c16.5,0,30-13.5,30-30v-16.52H112.735z"/>
	<polygon style="fill:#FFC843;" points="164.51,236.187 206.844,147.854 206.844,208.52 239.678,220.145 197.344,308.479    197.344,246.187  "/>
	<g>
		<g>
			<path style="fill:#0071CE;" d="M144.679,263.333h-16.195c-4.142,0-7.5-3.358-7.5-7.5c0-4.142,3.358-7.5,7.5-7.5h16.195     c4.142,0,7.5,3.358,7.5,7.5C152.179,259.976,148.821,263.333,144.679,263.333z"/>
			<path style="fill:#0071CE;" d="M144.679,286.667h-24.613c-4.142,0-7.5-3.358-7.5-7.5s3.358-7.5,7.5-7.5h24.613     c4.142,0,7.5,3.358,7.5,7.5S148.821,286.667,144.679,286.667z"/>
			<path style="fill:#0071CE;" d="M144.679,310h-30.666c-4.142,0-7.5-3.358-7.5-7.5s3.358-7.5,7.5-7.5h30.666     c4.142,0,7.5,3.358,7.5,7.5S148.821,310,144.679,310z"/>
			<path style="fill:#0071CE;" d="M144.679,168h-29.944c-4.142,0-7.5-3.358-7.5-7.5c0-4.142,3.358-7.5,7.5-7.5h29.944     c4.142,0,7.5,3.358,7.5,7.5C152.179,164.642,148.821,168,144.679,168z"/>
			<path style="fill:#0071CE;" d="M144.679,191.333h-21.195c-4.142,0-7.5-3.358-7.5-7.5s3.358-7.5,7.5-7.5h21.195     c4.142,0,7.5,3.358,7.5,7.5S148.821,191.333,144.679,191.333z"/>
			<path style="fill:#0071CE;" d="M144.679,214.667h-12.27c-4.142,0-7.5-3.358-7.5-7.5c0-4.142,3.358-7.5,7.5-7.5h12.27     c4.142,0,7.5,3.358,7.5,7.5C152.179,211.309,148.821,214.667,144.679,214.667z"/>
		</g>
		<g>
			<path style="fill:#0071CE;" d="M275.702,263.333h-16.195c-4.142,0-7.5-3.358-7.5-7.5c0-4.142,3.358-7.5,7.5-7.5h16.195     c4.142,0,7.5,3.358,7.5,7.5C283.202,259.976,279.844,263.333,275.702,263.333z"/>
			<path style="fill:#0071CE;" d="M284.121,286.667h-24.613c-4.142,0-7.5-3.358-7.5-7.5s3.358-7.5,7.5-7.5h24.613     c4.142,0,7.5,3.358,7.5,7.5S288.263,286.667,284.121,286.667z"/>
			<path style="fill:#0071CE;" d="M290.174,310h-30.667c-4.142,0-7.5-3.358-7.5-7.5s3.358-7.5,7.5-7.5h30.667     c4.142,0,7.5,3.358,7.5,7.5S294.316,310,290.174,310z"/>
			<path style="fill:#0071CE;" d="M289.451,168h-29.944c-4.142,0-7.5-3.358-7.5-7.5c0-4.142,3.358-7.5,7.5-7.5h29.944     c4.142,0,7.5,3.358,7.5,7.5C296.951,164.642,293.593,168,289.451,168z"/>
			<path style="fill:#0071CE;" d="M280.703,191.333h-21.195c-4.142,0-7.5-3.358-7.5-7.5s3.358-7.5,7.5-7.5h21.195     c4.142,0,7.5,3.358,7.5,7.5S284.845,191.333,280.703,191.333z"/>
			<path style="fill:#0071CE;" d="M271.778,214.667h-12.271c-4.142,0-7.5-3.358-7.5-7.5c0-4.142,3.358-7.5,7.5-7.5h12.271     c4.142,0,7.5,3.358,7.5,7.5C279.278,211.309,275.92,214.667,271.778,214.667z"/>
		</g>
		<path d="M242.181,213.076l-27.837-9.856l0-55.366c0-3.502-2.423-6.538-5.838-7.313c-3.414-0.777-6.912,0.914-8.425,4.072    l-42.333,88.333c-0.945,1.972-0.982,4.257-0.103,6.259c0.88,2.001,2.589,3.52,4.681,4.157l27.519,8.381l0,56.736    c0,3.502,2.423,6.538,5.838,7.313c0.556,0.126,1.113,0.188,1.665,0.188c2.835,0,5.494-1.616,6.761-4.26l42.334-88.333    c0.92-1.919,0.981-4.138,0.168-6.105C245.797,215.315,244.187,213.786,242.181,213.076z M204.844,275.476v-29.289    c0-3.3-2.158-6.213-5.315-7.175l-24.482-7.456l24.298-50.699v27.663c0,3.177,2.002,6.01,4.997,7.07l24.967,8.84L204.844,275.476z     M298.951,155.166v-54.647c0-17.734-12.377-32.621-28.944-36.503v-2.849c0-15.164-12.336-27.5-27.5-27.5H221.26V15h0.513    c4.142,0,7.5-3.358,7.5-7.5s-3.358-7.5-7.5-7.5h-39.358c-4.142,0-7.5,3.358-7.5,7.5s3.358,7.5,7.5,7.5h0.512v18.667h-21.247    c-15.163,0-27.5,12.336-27.5,27.5v2.849c-16.567,3.883-28.944,18.769-28.944,36.503v54.647c0,11.698,5.232,22.103,10.291,32.165    c5.277,10.496,10.734,21.348,10.734,34.211c0,13.476-5.683,31.298-11.179,48.534c-5.063,15.879-9.846,30.878-9.846,41.963v54.647    c0,20.678,16.822,37.5,37.5,37.5h118.716c20.678,0,37.5-16.822,37.5-37.5V312.04c0-11.085-4.783-26.084-9.846-41.963    c-5.496-17.235-11.179-35.058-11.179-48.534c0-12.863,5.457-23.716,10.734-34.211    C293.719,177.269,298.951,166.864,298.951,155.166z M197.926,15h8.334v18.667h-8.334V15z M149.179,61.167    c0-6.893,5.607-12.5,12.5-12.5h80.828c6.893,0,12.5,5.607,12.5,12.5v1.853H149.179V61.167z M283.951,366.687    c0,12.407-10.093,22.5-22.5,22.5H142.735c-12.407,0-22.5-10.093-22.5-22.5v-9.02h163.716V366.687z M283.951,155.166    c0,8.139-4.028,16.15-8.692,25.427c-5.781,11.497-12.333,24.527-12.333,40.95c0,15.81,6.044,34.762,11.888,53.091    c4.699,14.736,9.137,28.654,9.137,37.406v30.627H120.235V312.04c0-8.752,4.438-22.67,9.137-37.406    c5.845-18.329,11.888-37.281,11.888-53.091c0-16.422-6.552-29.453-12.333-40.95c-4.664-9.276-8.692-17.288-8.692-25.427v-54.647    c0-12.407,10.093-22.5,22.5-22.5h118.716c12.407,0,22.5,10.093,22.5,22.5V155.166z"/>
	</g>
</g>















</svg>